<?xml version="1.0" encoding="UTF-8" standalone="no"?><!DOCTYPE svg PUBLIC "-//W3C//DTD SVG 1.1//EN" "http://www.w3.org/Graphics/SVG/1.1/DTD/svg11.dtd"><svg width="100%" height="100%" viewBox="0 0 1667 1667" version="1.1" xmlns="http://www.w3.org/2000/svg" xmlns:xlink="http://www.w3.org/1999/xlink" xml:space="preserve" xmlns:serif="http://www.serif.com/" style="fill-rule:evenodd;clip-rule:evenodd;stroke-linejoin:round;stroke-miterlimit:2;"><path d="M1064.52,343.243c-26.387,-30.489 -42.358,-70.233 -42.358,-113.678c-0,-95.948 77.897,-173.846 173.845,-173.846c95.948,0 173.845,77.898 173.845,173.846c0,95.948 -77.897,173.845 -173.845,173.845c-11.639,0 -23.011,-1.146 -33.999,-3.329l-652.907,1130.87c-15.57,26.968 -50.106,36.222 -77.075,20.652c-26.968,-15.57 -36.222,-50.106 -20.652,-77.075l57.461,-99.526l-152.165,0c-59.791,0 -108.334,-48.543 -108.334,-108.333l0,-262.5c0,-59.791 48.543,-108.334 108.334,-108.334l428.812,0l319.038,-552.59Zm-400.784,1031.76l686.267,0c59.791,0 108.333,-48.543 108.333,-108.333l0,-262.5c0,-59.791 -48.542,-108.334 -108.333,-108.334l-407.835,0l-278.432,479.167Zm-164.244,-366.447c4.327,-8.317 2.022,-18.542 -5.456,-24.197c-7.477,-5.656 -17.943,-5.09 -24.768,1.337c-69.201,65.173 -156.765,147.64 -156.765,147.64c-0,0 87.254,84.271 155.642,150.321c6.73,6.499 17.162,7.208 24.709,1.678c7.547,-5.529 10.015,-15.69 5.846,-24.066c-30.564,-61.399 -63.901,-128.367 -63.901,-128.367c0,0 33.527,-64.441 64.693,-124.346Zm687.767,6.738c-4.117,-8.489 -1.464,-18.711 6.262,-24.125c7.726,-5.414 18.24,-4.42 24.813,2.347c61.94,63.757 135.836,139.82 135.836,139.82c-0,0 -75.895,77.773 -139.01,142.45c-6.589,6.752 -17.106,7.723 -24.82,2.29c-7.713,-5.432 -10.343,-15.66 -6.206,-24.139c29.147,-59.738 59.614,-122.179 59.614,-122.179c-0,-0 -28.632,-59.032 -56.489,-116.464Zm8.748,-834.225c26.767,-0 48.499,21.732 48.499,48.499c-0,26.767 -21.732,48.499 -48.499,48.499c-26.767,-0 -48.499,-21.732 -48.499,-48.499c0,-26.767 21.732,-48.499 48.499,-48.499Z" style="fill:#fff;"/></svg>